<?xml version="1.0" standalone="no"?>
<!DOCTYPE svg PUBLIC "-//W3C//DTD SVG 20010904//EN"
 "http://www.w3.org/TR/2001/REC-SVG-20010904/DTD/svg10.dtd">
<svg version="1.0" xmlns="http://www.w3.org/2000/svg"
 width="512.000000pt" height="512.000000pt" viewBox="0 0 512.000000 512.000000"
 preserveAspectRatio="xMidYMid meet">
<metadata>
Created by potrace 1.14, written by Peter Selinger 2001-2017
</metadata>
<g transform="translate(0.000000,512.000000) scale(0.100000,-0.100000)"
fill="#000000" stroke="none">
<path d="M975 4692 c-27 -6 -54 -30 -54 -50 0 -10 -7 -51 -16 -92 -21 -105
-24 -120 -29 -165 -21 -175 -27 -357 -16 -440 5 -33 11 -76 13 -95 3 -19 6
-35 7 -35 1 0 3 -17 6 -38 7 -58 67 -225 108 -302 21 -38 64 -105 97 -147 32
-43 57 -83 54 -90 -10 -30 -12 -88 -3 -88 5 0 6 -6 1 -12 -4 -7 -9 -24 -10
-38 -3 -31 -3 -351 0 -475 l2 -90 -51 2 c-67 3 -186 28 -254 53 -85 33 -146
71 -253 160 -78 65 -186 270 -203 388 -2 15 -7 45 -10 67 -8 52 -12 225 -6
248 3 13 10 16 25 11 35 -11 126 -7 142 6 8 7 15 10 15 6 0 -7 47 22 68 41 16
15 16 52 -1 59 -22 8 -87 11 -87 3 0 -4 -8 -6 -17 -4 -10 1 -27 -2 -38 -7 -11
-6 1 12 26 38 80 86 108 139 88 176 -14 26 -51 22 -82 -10 -15 -16 -25 -31
-22 -34 3 -3 0 -8 -7 -10 -10 -4 -13 11 -12 66 2 113 -31 153 -63 79 -18 -41
-19 -46 -21 -80 -3 -31 -22 -29 -22 2 0 77 -67 149 -101 109 -14 -17 -15 -79
-3 -109 7 -18 6 -18 -9 -6 -9 7 -17 18 -17 23 0 10 -14 28 -50 63 -74 73 -49
-109 36 -261 34 -61 34 -63 20 -105 -11 -32 -14 -76 -11 -173 2 -72 6 -142 9
-156 3 -14 7 -38 10 -55 3 -16 10 -45 15 -64 6 -18 10 -36 9 -40 0 -3 1 -9 2
-13 1 -5 4 -12 5 -18 1 -5 4 -12 5 -15 1 -3 3 -8 5 -12 1 -5 4 -15 7 -23 3 -8
23 -62 43 -120 96 -268 254 -521 440 -704 l72 -71 -19 -44 c-10 -25 -20 -54
-23 -65 -2 -12 -4 -21 -5 -21 -2 0 -5 -13 -14 -51 -22 -101 -25 -344 -3 -344
5 0 6 -4 3 -8 -7 -12 26 -116 55 -177 68 -139 145 -282 161 -299 10 -11 28
-34 39 -50 26 -37 118 -115 190 -162 50 -32 185 -89 232 -98 12 -2 33 -7 47
-10 14 -4 47 -8 73 -10 26 -1 52 -7 56 -12 15 -15 23 -72 12 -79 -15 -8 -14
-68 1 -100 15 -34 35 -32 58 8 l20 34 50 -25 c28 -13 50 -31 50 -39 0 -20 30
-63 44 -63 6 0 20 16 30 35 17 31 24 35 60 36 23 0 49 2 59 4 11 2 29 -9 44
-25 35 -40 63 -26 63 30 0 28 4 40 14 40 8 0 24 11 37 25 13 13 28 25 34 25 5
0 26 -16 46 -36 28 -27 42 -34 58 -29 17 5 21 14 21 53 0 47 -29 112 -50 112
-11 0 -13 30 -4 53 4 13 12 9 37 -15 132 -128 383 -224 595 -227 34 -1 42 -4
42 -20 0 -10 7 -25 16 -32 14 -12 20 -9 41 15 17 20 33 28 51 27 107 -7 103
-6 119 -39 23 -47 46 -39 71 23 9 21 26 35 58 49 25 10 46 17 48 15 1 -2 10
-16 19 -32 10 -15 24 -27 31 -27 21 0 37 51 31 100 -5 44 -5 46 32 65 34 17
107 66 157 105 98 76 214 222 276 347 98 200 122 430 65 626 -9 31 -17 60 -18
64 0 5 -7 19 -14 33 -14 28 -4 38 41 42 14 1 26 6 26 11 0 4 4 6 10 2 5 -3 17
-2 27 3 10 5 50 24 88 43 123 59 252 170 367 314 59 75 151 214 183 280 11 22
25 47 31 55 6 8 21 40 33 70 13 30 32 74 42 97 11 23 19 48 19 55 0 8 5 19 12
26 7 7 8 12 4 12 -5 0 -4 6 2 13 13 16 64 194 65 230 1 15 4 27 7 27 3 0 6 10
7 23 1 12 5 45 9 72 13 77 8 274 -8 325 -14 44 -14 46 17 95 64 100 103 287
59 281 -18 -3 -84 -83 -84 -102 0 -8 -4 -14 -8 -14 -9 0 -9 61 0 76 7 12 -7
50 -22 59 -17 11 -56 -13 -69 -41 -6 -14 -14 -43 -17 -64 -7 -44 -23 -54 -25
-15 -2 34 -2 35 -23 78 -10 20 -24 37 -31 37 -21 0 -34 -54 -31 -125 1 -36 0
-65 -3 -65 -3 0 -14 14 -23 30 -9 17 -29 35 -42 42 -22 9 -29 8 -46 -7 -16
-14 -17 -21 -8 -39 6 -11 11 -22 10 -23 -10 -14 8 -42 58 -95 60 -62 70 -75
49 -62 -20 12 -104 15 -132 5 -15 -6 -27 -17 -27 -24 0 -16 43 -56 80 -75 30
-15 113 -20 158 -9 l32 9 1 -44 c5 -164 -2 -256 -26 -348 -20 -79 -73 -195
-112 -247 -45 -60 -115 -133 -129 -133 -7 0 -15 -6 -17 -12 -3 -7 -6 3 -7 22
-6 154 -12 193 -40 280 -21 65 -52 134 -62 138 -5 2 -8 8 -8 14 0 38 -144 198
-235 260 -33 23 -61 42 -63 43 -2 2 9 28 23 58 25 55 41 95 44 109 1 4 8 27
17 50 8 23 17 55 20 72 3 17 9 47 14 66 31 118 31 442 1 605 -5 28 -12 66 -15
85 -22 128 -42 186 -64 189 -49 5 -87 2 -90 -7 -2 -6 -16 -30 -32 -54 -17 -24
-30 -49 -30 -55 0 -7 -4 -13 -10 -13 -5 0 -10 -4 -10 -10 0 -17 -154 -232
-212 -295 -15 -16 -28 -34 -28 -38 0 -5 -4 -5 -10 -2 -5 3 -10 1 -10 -5 0 -12
-71 -83 -106 -106 -15 -11 -32 -12 -67 -5 -26 4 -57 7 -69 6 -28 -4 -152 -24
-193 -31 -16 -4 -79 -7 -140 -8 -60 -2 -121 -6 -135 -9 -14 -4 7 8 47 27 72
34 167 96 214 138 76 69 101 142 50 144 -20 1 -148 -55 -176 -78 -5 -4 -53
-40 -105 -79 -52 -40 -108 -84 -125 -98 -27 -24 -27 -23 6 19 32 41 129 195
129 205 0 2 5 16 12 32 34 84 27 163 -15 163 -122 0 -326 -417 -328 -670 -1
-14 -10 -13 -69 6 -66 22 -91 27 -177 40 -41 7 -63 30 -48 53 3 5 1 12 -4 15
-4 3 -8 17 -8 31 -1 14 -6 37 -12 52 -6 16 -12 37 -14 48 -10 55 -86 216 -144
302 -89 134 -187 165 -177 56 6 -74 65 -200 138 -299 25 -32 43 -61 40 -63 -2
-3 -10 3 -17 11 -6 9 -41 39 -77 67 -36 28 -69 54 -75 58 -61 49 -217 133
-245 133 -5 0 -16 -7 -24 -16 -14 -13 -14 -19 -2 -42 35 -68 152 -162 280
-224 44 -21 68 -36 51 -32 -16 3 -82 8 -145 9 -64 2 -135 8 -158 14 -23 7 -47
9 -52 6 -5 -3 -11 -1 -15 5 -4 6 -9 8 -13 6 -4 -2 -30 0 -59 5 -32 6 -67 6
-95 0 -51 -12 -59 -8 -138 72 -75 74 -121 127 -150 168 -13 19 -27 36 -30 39
-3 3 -9 12 -15 21 -5 9 -28 43 -50 75 -44 66 -51 76 -95 151 -39 66 -55 76
-105 65z"/>
</g>
</svg>
