<svg xmlns="http://www.w3.org/2000/svg" width="512" height="200" style="overflow: visible;" viewBox="0 0 542 200">
    <path d="M374.252,128.415c0-68.621-55.631-124.25-124.251-124.25c-68.621,0-124.25,55.629-124.25,124.25l0,0 c-68.621,0-124.25,55.629-124.25,124.251c0,68.62,55.63,124.25,124.25,124.25c0.001,68.622,55.63,124.252,124.25,124.252 s124.251-55.63,124.251-124.252l0,0c68.621,0,124.249-55.63,124.249-124.25C498.501,184.043,442.873,128.415,374.252,128.415z" transform="matrix(-0.259009373986799, 0.1324784984538658, -0.11811736334687213, -0.23093183365027384, 195.39905043286836, 123.20122269460413)" fill="rgba(242,242,242,1)" data-uid="o_f0algm45i_5" />
    <path d="M374.252,128.415c0-68.621-55.631-124.25-124.251-124.25c-68.621,0-124.25,55.629-124.25,124.25l0,0 c-68.621,0-124.25,55.629-124.25,124.251c0,68.62,55.63,124.25,124.25,124.25c0.001,68.622,55.63,124.252,124.25,124.252 s124.251-55.63,124.251-124.252l0,0c68.621,0,124.249-55.63,124.249-124.25C498.501,184.043,442.873,128.415,374.252,128.415z" transform="matrix(-0.23158404254195222, 0.1595499074051912, -0.14225412367580903, -0.20647949777343333, 192.93201542161393, 112.93775431305858)" fill="#ffffff" data-uid="o_f0algm45i_6" />
    <g transform="matrix(2.4169031595369614, 0, 0, 2.4169031595369614, 18.036589098897274, 5.572923237862483)" data-uid="o_f0algm45i_7">
        <path fill="#F03A73" d="M56.3 57.2c-.3 3.1-1.9 5.6-1.7.4-.5 3.9-3.3 2.5-.9-1.2-2.3 3.4-4 2.8-1.1-.9-2.6 2.4-4.2-.9 1.1-1.5-6.7-1.8 3.2-4.5 2.6 3.2z" transform="matrix(-0.8586771488189697, 0.5125168561935425, -0.5125168561935425, -0.8586771488189697, 75.35260009765625, 36.83482360839844)" data-uid="o_f0algm45i_8" />
        <path fill="#702D59" d="M55.5 56c-.8.3-1.5-.7-.9-1.4 8.7-10.8 1.1-19.1-5.5-20.7.6-1.9 2.2-8.1 2.8-10 14 2.3 10.2 28.8 3.6 32.1z" transform="matrix(-0.8586771488189697, 0.5125168561935425, -0.5125168561935425, -0.8586771488189697, 75.35260009765625, 36.83482360839844)" data-uid="o_f0algm45i_9" />
        <path fill="rgba(46,56,72,1)" d="M55.5 56c-.8.3-1.5-.7-.9-1.4 4.5-5.5 4.7-10.4 2.9-14 4 7.4 3.1-8.9.5-13.1 6.4 7.8 2.9 25.8-2.5 28.5z" transform="matrix(-0.8586771488189697, 0.5125168561935425, -0.5125168561935425, -0.8586771488189697, 75.35260009765625, 36.83482360839844)" data-uid="o_f0algm45i_10" />
        <path fill="#F03A73" d="M9.7 57.2c.3 3.1 1.9 5.6 1.7.4.5 3.9 3.3 2.5.9-1.2 2.3 3.4 4 2.8 1.1-.9 2.6 2.4 4.2-.9-1.1-1.5 6.7-1.8-3.2-4.5-2.6 3.2z" transform="matrix(-0.866012692451477, -0.5000221133232117, 0.5000221133232117, -0.866012692451477, 48.92463684082031, 70.77935791015625)" data-uid="o_f0algm45i_11" />
        <path fill="#702D59" d="M10.5 56c.8.3 1.5-.7.9-1.4-8.8-10.8-1.1-19.1 5.5-20.7-.6-1.9-2.2-8.1-2.8-10C.1 26.2 3.9 52.7 10.5 56z" transform="matrix(-0.866012692451477, -0.5000221133232117, 0.5000221133232117, -0.866012692451477, 48.92463684082031, 70.77935791015625)" data-uid="o_f0algm45i_12" />
        <path fill="grey" d="M10.5 56c.8.3 1.5-.7.9-1.4-4.5-5.5-4.7-10.4-2.9-14-3.9 7.3-3.1-8.9-.5-13.2-6.4 7.9-2.9 25.9 2.5 28.6z" transform="matrix(-0.866012692451477, -0.5000221133232117, 0.5000221133232117, -0.866012692451477, 48.92463684082031, 70.77935791015625)" data-uid="o_f0algm45i_13" />
        <path fill="grey" d="M25 63.2c.2.3.4.5.6.8.8 1.1 1.2.7 1.2-.4 0-.3-.1-.7-.3-.9-.8-.8-2.3-.6-1.5.5z" transform="matrix(1, 0, 0, 1, 0, 0)" data-uid="o_f0algm45i_14" />
        <path fill="grey" d="M23.6 64c.7-1.5-2.1-2.8-1.3.2.5 1.3.9.9 1.3-.2z" transform="matrix(1, 0, 0, 1, 0, 0)" data-uid="o_f0algm45i_15" />
        <path fill="grey" d="M27.7 62c.3.3.6.5.9.8.2.2.6.7.9.7.6.1.5-1.2.4-1.5-.1-.4-.3-.8-.7-1.1-1.1-.7-2.8 0-1.5 1.1z" transform="matrix(1, 0, 0, 1, 0, 0)" data-uid="o_f0algm45i_16" />
        <path fill="grey" d="M19.4 62.9c0-.3.1-.7.3-.9.2-.3.6-.5 1-.4.2 0 .5.1.6.3.1.2 0 .5-.2.7-.2.3-.4.5-.5.8-.1.2-.3.6-.5.7-.5.2-.7-.9-.7-1.2z" transform="matrix(1, 0, 0, 1, 0, 0)" data-uid="o_f0algm45i_17" />
        <path fill="grey" d="M41 63.2c-.2.3-.4.5-.6.8-.8 1.1-1.2.7-1.2-.4 0-.3.1-.7.3-.9.8-.8 2.3-.6 1.5.5z" transform="matrix(1, 0, 0, 1, 0, 0)" data-uid="o_f0algm45i_18" />
        <path fill="grey" d="M42.4 64c-.7-1.5 2.1-2.8 1.3.2-.5 1.3-.9.9-1.3-.2z" transform="matrix(1, 0, 0, 1, 0, 0)" data-uid="o_f0algm45i_19" />
        <path fill="grey" d="M38.3 62c-.3.3-.6.5-.9.8-.2.2-.6.7-.9.7-.6.1-.5-1.2-.4-1.5.1-.4.3-.8.7-1.1 1.1-.7 2.8 0 1.5 1.1z" transform="matrix(1, 0, 0, 1, 0, 0)" data-uid="o_f0algm45i_20" />
        <path fill="grey" d="M46.6 62.9c0-.3-.1-.7-.3-.9-.2-.3-.6-.5-1-.4-.2 0-.5.1-.6.3-.1.2 0 .5.2.7.2.3.4.5.5.8.1.2.3.6.5.7.5.2.7-.9.7-1.2z" transform="matrix(1, 0, 0, 1, 0, 0)" data-uid="o_f0algm45i_21" />
        <path fill="#F03A73" d="M27.1 51.4c.4 1.6.8 3.2 1.4 4.7 3.7 9.5-8.9 9.5-9 4.8 0-3.2.6-6.4.9-9.6h6.7z" transform="matrix(1, 0, 0, 1, 0, 0)" data-uid="o_f0algm45i_22" />
        <path fill="#F03A73" d="M38.9 51.4h6.6c.3 3.2.9 6.4.9 9.6 0 4.6-12.6 4.6-9-4.8.7-1.6 1.1-3.2 1.5-4.8z" transform="matrix(1, 0, 0, 1, 0, 0)" data-uid="o_f0algm45i_23" />
        <path fill="#D62766" d="M41.5 12c-2.5.2-4.8 1.3-6.3 2.8-.2-2.5.4-5.5 2.2-8.6 3.2-5.6 5.3-2 .2 4 10.2-8.8 8.3-1.7 1.2.5 5.9-1.1 5.3 1.1 2.7 1.3z" transform="matrix(1, 0, 0, 1, 0, 0)" data-uid="o_f0algm45i_24" />
        <path fill="#D62766" d="M24.5 12c2.5.2 4.8 1.3 6.3 2.8.2-2.5-.4-5.5-2.2-8.6-3.2-5.6-5.3-2-.2 4-10.2-8.8-8.3-1.7-1.2.5-5.9-1.1-5.3 1.1-2.7 1.3z" transform="matrix(1, 0, 0, 1, 0, 0)" data-uid="o_f0algm45i_25" />
        <path fill="#F2F2F2" d="M52.6 23.8l-8.9-12.3c4.4 1.1 9.3-6.2 11.6-10.3.3-.4 1.7-.2 1.8.2 1.3 5.4 1.8 11.1-.2 16.2-.9 2.1-2.2 4.3-4.3 6.2z" transform="matrix(1, 0, 0, 1, 0, 0)" data-uid="o_f0algm45i_26" />
        <path fill="rgba(242,242,242,1)" d="M52.6 23.8l-8.9-12.3.4.1c2 2.3 3.7 3.8 5.4 4.4 1.7.6 3.4.4 4.8-.6s2.4-2.6 2.9-4.6c.5-2 .6-4.3.3-6.8.5 2.9.8 5.9.4 9.2-.2 1.7-.7 3.4-1.5 5.2-.7 1.9-2 3.7-3.8 5.4z" transform="matrix(1, 0, 0, 1, 0, 0)" data-uid="o_f0algm45i_27" />
        <path d="M45 11.6l10.1 9.3c1.3-1.8 2-3.7 2.5-5.5l-9.7-4.9c-1.1.6-2 1-2.9 1.1z" fill="#702D59" transform="matrix(1, 0, 0, 1, 0, 0)" data-uid="o_f0algm45i_28" />
        <path d="M49.3 9.4l8.8 3.4c.1-1.2.2-2.4.1-3.6l-6.9-1.9c-.6.8-1.3 1.5-2 2.1z" fill="#702D59" transform="matrix(1, 0, 0, 1, 0, 0)" data-uid="o_f0algm45i_29" />
        <path d="M52.6 5.7L58 6.8l-.3-2.1-4.1-.7c-.3.6-.6 1.2-1 1.7z" fill="#702D59" transform="matrix(1, 0, 0, 1, 0, 0)" data-uid="o_f0algm45i_30" />
        <path fill="rgba(46,56,72,1)" d="M55.1 20.9l-5.2-4.8c2.1.7 4.2 0 5.7-1.7l2 1c-.5 1.8-1.2 3.7-2.5 5.5z" transform="matrix(1, 0, 0, 1, 0, 0)" data-uid="o_f0algm45i_31" />
        <path fill="rgba(46,56,72,1)" d="M57.8 6.8c0-.7 0-1.3-.1-2h.1l.3 2.1-.3-.1z" transform="matrix(1, 0, 0, 1, 0, 0)" data-uid="o_f0algm45i_32" />
        <path fill="rgba(46,56,72,1)" d="M56.8 12.3c.4-1 .7-2.1.8-3.2l.5.1c.1 1.2 0 2.3-.1 3.6l-1.2-.5z" transform="matrix(1, 0, 0, 1, 0, 0)" data-uid="o_f0algm45i_33" />
        <path fill="#F2F2F2" d="M13.4 23.8l8.9-12.3c-4.4 1.1-9.4-6.3-11.6-10.3-.3-.4-1.7-.2-1.8.2C7 9.8 7.1 17.9 13.4 23.8z" transform="matrix(1, 0, 0, 1, 0, 0)" data-uid="o_f0algm45i_34" />
        <path fill="rgba(242,242,242,1)" d="M13.4 23.8l8.9-12.3-.4.1c-2 2.3-3.7 3.8-5.4 4.4-1.7.6-3.4.4-4.8-.6s-2.4-2.6-2.9-4.6c-.7-2-.7-4.3-.4-6.8-.5 2.9-.8 5.9-.4 9.2.2 1.7.7 3.4 1.5 5.2.8 1.9 2.1 3.7 3.9 5.4z" transform="matrix(1, 0, 0, 1, 0, 0)" data-uid="o_f0algm45i_35" />
        <path d="M21 11.6l-10.1 9.3c-1.3-1.8-2-3.7-2.5-5.5l9.7-4.9c1.1.6 2 1 2.9 1.1z" fill="#702D59" transform="matrix(1, 0, 0, 1, 0, 0)" data-uid="o_f0algm45i_36" />
        <path d="M16.7 9.4L8 12.8c-.1-1.2-.2-2.4-.1-3.6l6.9-1.9c.5.8 1.2 1.5 1.9 2.1z" fill="#702D59" transform="matrix(1, 0, 0, 1, 0, 0)" data-uid="o_f0algm45i_37" />
        <path d="M13.4 5.7L8 6.8l.3-2.1 4.1-.7c.3.6.6 1.2 1 1.7z" fill="#702D59" transform="matrix(1, 0, 0, 1, 0, 0)" data-uid="o_f0algm45i_38" />
        <path fill="rgba(46,56,72,1)" d="M10.9 20.9l5.2-4.8c-2.1.7-4.2 0-5.7-1.7l-2 1c.5 1.8 1.2 3.7 2.5 5.5z" transform="matrix(1, 0, 0, 1, 0, 0)" data-uid="o_f0algm45i_39" />
        <path fill="rgba(46,56,72,1)" d="M8.2 6.8c0-.7 0-1.3.1-2h-.1c-.1.6-.1 1.3-.2 2h.2z" transform="matrix(1, 0, 0, 1, 0, 0)" data-uid="o_f0algm45i_40" />
        <path fill="rgba(46,56,72,1)" d="M9.2 12.3c-.4-1-.7-2.1-.8-3.2l-.6.1c-.1 1.2 0 2.3.1 3.6l1.3-.5z" transform="matrix(1, 0, 0, 1, 0, 0)" data-uid="o_f0algm45i_41" />
        <path fill="#F03A73" d="M42.8 56.9c-6.4 1.2-12.9 1.3-19.7 0-13.3-2.6-15.2-49-3.3-47 2.8.5 7.9.7 11.4 5.2 1.1 1.4 2.4 1.4 3.5 0 3.5-4.5 8.7-4.7 11.4-5.2 12-2 10.1 44.4-3.3 47z" transform="matrix(1, 0, 0, 1, 0, 0)" data-uid="o_f0algm45i_42" />
        <path fill="rgba(214,39,102,1)" d="M42.8 56.9c-6.4 1.2-12.9 1.3-19.7 0C15.2 55.3 11.3 38.1 12 25c.5 11.2 4.4 23.7 11 26.1 6.8 2.5 13.4 2.5 19.9.1 6.6-2.5 10.6-15 11.1-26.1.7 13.1-3.2 30.2-11.2 31.8z" transform="matrix(1, 0, 0, 1, 0, 0)" data-uid="o_f0algm45i_43" />
        <path fill="rgba(214,39,102,1)" d="M43.7 56.4c-1.7.7-3.5 1-5.3 1.2-3.2.4-7.2.5-10.8 0-1.8-.2-3.6-.5-5.3-1.3.9.2 2.4.6 5.3.8 3.5.2 6 .3 10.7 0 1.7-.1 3.6-.3 5.4-.7z" transform="matrix(1, 0, 0, 1, 0, 0)" data-uid="o_f0algm45i_44" />
        <path fill="#D62766" d="M31.9 22c-1.5-6.1-7.2-10.6-12.2-4.7-6 7.1.6 14.2 7.4 12.8 3.6-.7 5.7-4.4 4.8-8.1z" transform="matrix(1, 0, 0, 1, 0, 0)" data-uid="o_f0algm45i_45" />
        <path fill="rgba(242,242,242,1)" d="M31.6 22.2c-1.3-5.2-6.1-9.1-10.4-4-5.1 6.1.5 12.2 6.3 11 3-.7 4.8-3.9 4.1-7z" transform="matrix(1, 0, 0, 1, 0, 0)" data-uid="o_f0algm45i_46" />
        <path fill="#F2F2F2" d="M31.2 21.1c-1.6-4.6-6.1-7.6-10.1-2.9-2.4 2.8-2.4 5.6-1.2 7.7-.5-1.9-.1-4.2 1.8-6.4 3.6-4.2 7.6-2.2 9.5 1.6z" transform="matrix(1, 0, 0, 1, 0, 0)" data-uid="o_f0algm45i_47" />
        <path fill="rgba(72,212,255,1)" transform="matrix(1, 0, 0, 1, 0, 0)" data-type="circle" data-cx="26.7" data-cy="24.2" data-r="3.3" d="M26.7,24.2m-3.3,0a3.3,3.3 0 1, 0 6.6,0a3.3,3.3 0 1, 0 -6.6,0" data-uid="o_f0algm45i_48" />
        <path fill="rgba(46,56,72,1)" transform="matrix(1, 0, 0, 1, 0, 0)" data-type="circle" data-cx="26.7" data-cy="24.2" data-r="1.6" d="M26.7,24.2m-1.6,0a1.6,1.6 0 1, 0 3.2,0a1.6,1.6 0 1, 0 -3.2,0" data-uid="o_f0algm45i_49" />
        <path fill="rgba(242,242,242,1)" transform="matrix(1, 0, 0, 1, 0, 0)" data-type="circle" data-cx="27.8" data-cy="23.2" data-r="0.6" d="M27.8,23.2m-0.6,0a0.6,0.6 0 1, 0 1.2,0a0.6,0.6 0 1, 0 -1.2,0" data-uid="o_f0algm45i_50" />
        <path fill="rgba(242,242,242,1)" transform="matrix(1, 0, 0, 1, 0, 0)" data-type="circle" data-cx="26.3" data-cy="24.6" data-r="0.3" d="M26.3,24.6m-0.3,0a0.3,0.3 0 1, 0 0.6,0a0.3,0.3 0 1, 0 -0.6,0" data-uid="o_f0algm45i_51" />
        <path fill="#D62766" d="M34.1 22c1.5-6.1 7.2-10.6 12.2-4.7 6 7.1-.6 14.2-7.4 12.8-3.6-.7-5.7-4.4-4.8-8.1z" transform="matrix(1, 0, 0, 1, 0, 0)" data-uid="o_f0algm45i_52" />
        <path fill="rgba(242,242,242,1)" d="M34.4 22.2c1.3-5.2 6.1-9.1 10.4-4 5.1 6.1-.5 12.2-6.3 11-3-.7-4.8-3.9-4.1-7z" transform="matrix(1, 0, 0, 1, 0, 0)" data-uid="o_f0algm45i_53" />
        <path fill="#F2F2F2" d="M34.8 21.1c1.6-4.6 6.1-7.6 10.1-2.9 2.4 2.8 2.4 5.6 1.2 7.7.5-1.9.1-4.2-1.8-6.4-3.6-4.2-7.6-2.2-9.5 1.6z" transform="matrix(1, 0, 0, 1, 0, 0)" data-uid="o_f0algm45i_54" />
        <path fill="rgba(72,212,255,1)" transform="matrix(1, 0, 0, 1, 0, 0)" data-type="circle" data-cx="39.3" data-cy="24.2" data-r="3.3" d="M39.3,24.2m-3.3,0a3.3,3.3 0 1, 0 6.6,0a3.3,3.3 0 1, 0 -6.6,0" data-uid="o_f0algm45i_55" />
        <path fill="rgba(46,56,72,1)" transform="matrix(1, 0, 0, 1, 0, 0)" data-type="circle" data-cx="39.3" data-cy="24.2" data-r="1.6" d="M39.3,24.2m-1.6,0a1.6,1.6 0 1, 0 3.2,0a1.6,1.6 0 1, 0 -3.2,0" data-uid="o_f0algm45i_56" />
        <path fill="rgba(242,242,242,1)" transform="matrix(1, 0, 0, 1, 0, 0)" data-type="circle" data-cx="40.5" data-cy="23.2" data-r="0.6" d="M40.5,23.2m-0.6,0a0.6,0.6 0 1, 0 1.2,0a0.6,0.6 0 1, 0 -1.2,0" data-uid="o_f0algm45i_57" />
        <path fill="rgba(242,242,242,1)" transform="matrix(1, 0, 0, 1, 0, 0)" data-type="circle" data-cx="39" data-cy="24.6" data-r="0.3" d="M39,24.6m-0.3,0a0.3,0.3 0 1, 0 0.6,0a0.3,0.3 0 1, 0 -0.6,0" data-uid="o_f0algm45i_58" />
        <path fill="#702D59" d="M47.1 39.8c-7.7 6.3-20.5 6.3-28.2 0-2.3-1.9-2.6-5.2-.7-7.5 1.9-2.3 5.2-2.6 7.5-.7 3.7 3 10.9 3 14.6 0 2.3-1.9 5.6-1.5 7.5.7 1.9 2.3 1.5 5.6-.7 7.5z" transform="matrix(1, 0, 0, 1, 0, 0)" data-uid="o_f0algm45i_59" />
        <path fill="rgba(46,56,72,1)" d="M36.9 44.2c-2.6.4-5.3.4-7.9 0-1.6-.3-2.7-1.8-2.3-3.4.9-3.7 5.9-6.1 5.2-2.3-.6 2.9 3.5 2 2.3 0-1.9-3.2 3.7-1.4 5 2.1.6 1.5-.6 3.3-2.3 3.6z" transform="matrix(1, 0, 0, 1, 0, 0)" data-uid="o_f0algm45i_60" />
        <path fill="#F2F2F2" d="M24.7 40.9c.2.5-.6 2-.6 2-1.2-.5-2.3-1.1-3.3-1.7 0 0-.3-2.1.2-2.3 1.3-.7 3.1.7 3.7 2z" transform="matrix(1, 0, 0, 1, 0, 0)" data-uid="o_f0algm45i_61" />
        <path fill="rgba(242,242,242,1)" d="M24.6 41.1c-.7 1-2.2.5-3-.1-.5-.4-.7-.9-.8-1.5V39c-.2.7 0 2 0 2 1.1.7 2.2 1.2 3.3 1.7 0 0 .8-1.4.6-1.9 0 .2-.1.3-.1.3z" transform="matrix(1, 0, 0, 1, 0, 0)" data-uid="o_f0algm45i_62" />
        <path fill="#F2F2F2" d="M30 42.3c.3.4-.3 2-.3 2-1.3-.2-2.5-.4-3.7-.8 0 0 0-1.7.4-2 1.1-.6 2.9-.2 3.6.8z" transform="matrix(1, 0, 0, 1, 0, 0)" data-uid="o_f0algm45i_63" />
        <path fill="rgba(242,242,242,1)" d="M29.7 44.3c-1.3-.2-2.5-.4-3.7-.8 0 0 0-1.3.3-1.8-.2 1.7 3.3 2.3 3.8.7.1.5-.4 1.9-.4 1.9z" transform="matrix(1, 0, 0, 1, 0, 0)" data-uid="o_f0algm45i_64" />
        <path fill="#F2F2F2" d="M26.1 34.3c-.2-.5.5-2.1.5-2.1 1 .6 2.2 1.1 3.5 1.4 0 0 .1 1.8-.3 2-1.1.7-3.2-.1-3.7-1.3z" transform="matrix(1, 0, 0, 1, 0, 0)" data-uid="o_f0algm45i_65" />
        <path fill="rgba(242,242,242,1)" d="M29.8 35.5c-.5-2.7-3-2.5-3.7-1.7v.1c0-.7.5-1.8.5-1.8 1 .6 2.2 1.1 3.5 1.4 0 0 0 1.7-.3 2z" transform="matrix(1, 0, 0, 1, 0, 0)" data-uid="o_f0algm45i_66" />
        <path fill="#F2F2F2" d="M36.4 42.2c.4.3.4 2 .4 2-2 .3-4 .4-6 .2 0 0-.2-1.7.2-2 1.3-1.2 3.9-1.2 5.4-.2z" transform="matrix(1, 0, 0, 1, 0, 0)" data-uid="o_f0algm45i_67" />
        <path fill="rgba(242,242,242,1)" d="M36.8 44.2c-2 .3-4 .4-6 .2 0 0-.1-.8 0-1.4.9 2 5.3 1 5.8-.6.2.6.2 1.8.2 1.8z" transform="matrix(1, 0, 0, 1, 0, 0)" data-uid="o_f0algm45i_68" />
        <path fill="#F2F2F2" d="M30.8 35.8c-.3-.4.1-2.1.1-2.1 1.8.2 3.7.2 5.4-.3 0 0 .7 1.6.4 2-1 1.7-4.6 1.9-5.9.4z" transform="matrix(1, 0, 0, 1, 0, 0)" data-uid="o_f0algm45i_69" />
        <path fill="rgba(242,242,242,1)" d="M36.8 35.5c0-.2-.1-.4-.3-.6-1-1.1-5.3-1-5.8.7-.1-.6.3-1.9.3-1.9 1.8.2 3.7.2 5.4-.3-.1 0 .7 1.6.4 2.1z" transform="matrix(1, 0, 0, 1, 0, 0)" data-uid="o_f0algm45i_70" />
        <path fill="#F2F2F2" d="M41.8 42.9c-.9.4-1.9.7-2.9.9 0 0-.9-1.5-.6-2 .5-.9 1.9-1.2 2.7-.9.5.3.8 2 .8 2z" transform="matrix(1, 0, 0, 1, 0, 0)" data-uid="o_f0algm45i_71" />
        <path fill="rgba(242,242,242,1)" d="M41.2 41.1c.2 1.8-2.2 2.4-3 .9 0 .6.7 1.8.7 1.8 1-.2 2-.6 2.9-.9 0 0-.3-1.3-.6-1.8z" transform="matrix(1, 0, 0, 1, 0, 0)" data-uid="o_f0algm45i_72" />
        <path fill="#F2F2F2" d="M45 38.8c.5.2.2 2.3.2 2.3-.7.5-1.5.9-2.3 1.3 0 0-1.1-1.3-1-1.8.4-1.2 2-2.3 3.1-1.8z" transform="matrix(1, 0, 0, 1, 0, 0)" data-uid="o_f0algm45i_73" />
        <path fill="rgba(242,242,242,1)" d="M45.2 41.1c-.7.5-1.5.9-2.3 1.3 0 0-.9-1-1-1.6.4.9 3.4 1.2 3.1-1.9.5.4.2 2.2.2 2.2z" transform="matrix(1, 0, 0, 1, 0, 0)" data-uid="o_f0algm45i_74" />
        <path fill="#F2F2F2" d="M45 38.8c.5.2.2 2.3.2 2.3-.7.5-1.5.9-2.3 1.3 0 0-1.1-1.3-1-1.8.4-1.1 2-2.3 3.1-1.8z" transform="matrix(1, 0, 0, 1, 0, 0)" data-uid="o_f0algm45i_75" />
        <path fill="rgba(242,242,242,1)" d="M45.2 41.1c-.7.5-1.5.9-2.3 1.3 0 0-.9-1-1-1.6.4.9 3.4 1.2 3.1-1.9.5.4.2 2.2.2 2.2z" transform="matrix(1, 0, 0, 1, 0, 0)" data-uid="o_f0algm45i_76" />
        <path fill="#F2F2F2" d="M38.1 32.9c.8-.3 1.6-.8 2.2-1.3.1 0 .1-.1.2-.1 0 0 1 1.4.8 1.9-.2 1-1.7 1.9-2.6 1.5-.5-.3-.6-2-.6-2z" transform="matrix(1, 0, 0, 1, 0, 0)" data-uid="o_f0algm45i_77" />
        <path fill="rgba(242,242,242,1)" d="M41.4 33.2c-.4-.4-1-.7-1.6-.5-.8.2-1.3 1.1-1.2 2.1-.4-.4-.6-1.9-.6-1.9.8-.3 1.6-.8 2.2-1.3.1 0 .1-.1.2-.1.1-.1.9 1.1 1 1.7z" transform="matrix(1, 0, 0, 1, 0, 0)" data-uid="o_f0algm45i_78" />
        <path fill="#F2F2F2" d="M41.3 30.9c1.2-.6 2.5-.7 3.7-.4 0 0 .7 2 .2 2.3-.9.6-2 .3-3-.1-.4-.1-.9-1.8-.9-1.8z" transform="matrix(1, 0, 0, 1, 0, 0)" data-uid="o_f0algm45i_79" />
        <path fill="rgba(242,242,242,1)" d="M45 30.5c-1.2-.3-2.5-.2-3.7.4 0 0 .4 1.5.9 1.8-1-2.1 2.5-2.6 3.2-.1.2-.5-.4-2.1-.4-2.1z" transform="matrix(1, 0, 0, 1, 0, 0)" data-uid="o_f0algm45i_80" />
        <path fill="#F2F2F2" d="M25.1 31.2s-.2 1.9-.7 2c-1.4.4-2.7.4-3.7-.3-.5-.3.2-2.3.2-2.3 1.4-.4 2.9-.2 4.2.6z" transform="matrix(1, 0, 0, 1, 0, 0)" data-uid="o_f0algm45i_81" />
        <path fill="rgba(242,242,242,1)" d="M24.7 33c.3-.5.4-1.8.4-1.8-1.3-.8-2.8-1-4.1-.6 0 0-.4 1.1-.4 1.8.5-2.1 4-1.5 4.1.6z" transform="matrix(1, 0, 0, 1, 0, 0)" data-uid="o_f0algm45i_82" />
        <path fill="rgba(242,242,242,1)" d="M34.4 36.3c-.9.6-3.4-.3-1.9-.2 1.2.1 2.3-.1 1.9.2z" transform="matrix(1, 0, 0, 1, 0, 0)" data-uid="o_f0algm45i_83" />
        <path fill="rgba(242,242,242,1)" d="M39.6 34.7c-.2 0-.2 0 .5-.5 1.3-.9.1.3-.5.5z" transform="matrix(1, 0, 0, 1, 0, 0)" data-uid="o_f0algm45i_84" />
    </g>
    <path text="Creature" fill="#FFFFFF" space="preserve" text-anchor="middle" offset="0.5" font-scale="contain" font-size="48" font-family="Titan One" transform="matrix(1.2758878778707696, 0, 0, 1.2758878778707696, 362.50676032587387, 84.21689249204873)" data-fl-textpath="" font-weight="400" font-style="normal" data-uid="o_f0algm45i_85" d="M-92.39800000000001-0.36Q-94.31800000000001 0.1 -96.308 0.26Q-98.308 0.43 -100.19800000000001 0.43Q-102.09800000000001 0.43 -103.12800000000001 0.34Q-104.15800000000002 0.24 -105.83800000000001-0.14Q-107.51800000000001-0.53 -108.90800000000002-1.2Q-110.308-1.87 -111.86800000000001-3.17Q-113.42800000000001-4.46 -114.47800000000001-6.24L-114.47800000000001-6.24Q-116.92800000000001-10.37 -116.92800000000001-16.9L-116.92800000000001-16.9Q-116.92800000000001-21.26 -115.558-24.62Q-114.18800000000002-27.98 -112.248-29.81Q-110.308-31.63 -107.808-32.74L-107.808-32.74Q-103.778-34.56 -99.69800000000001-34.56L-99.69800000000001-34.56Q-93.83800000000001-34.56 -91.298-33.6L-91.298-33.6Q-90.14800000000001-33.17 -89.22800000000001-32.26Q-88.31800000000001-31.34 -88.31800000000001-29.62Q-88.31800000000001-27.89 -89.15800000000002-25.25Q-89.998-22.61 -91.58800000000001-22.61L-91.58800000000001-22.61Q-92.06800000000001-22.61 -95.138-23.38Q-98.20800000000001-24.14 -99.308-24.14L-99.308-24.14Q-100.98800000000001-24.14 -102.168-22.27Q-103.34800000000001-20.4 -103.34800000000001-16.94Q-103.34800000000001-13.49 -102.308-11.57Q-101.278-9.65 -99.59800000000001-9.65L-99.59800000000001-9.65Q-98.39800000000001-9.65 -95.25800000000001-10.63Q-92.108-11.62 -91.58800000000001-11.62L-91.58800000000001-11.62Q-90.09800000000001-11.62 -89.25800000000001-8.88Q-88.418-6.14 -88.418-4.46Q-88.418-2.78 -89.44800000000001-1.8Q-90.47800000000001-0.82 -92.39800000000001-0.36ZM-72.24-15.17L-72.24-15.17L-72.24-1.15Q-72.24-0.62 -74.94999999999999-0.31Q-77.66 0 -80.57 0Q-83.47 0 -84.33999999999999-0.26Q-85.19999999999999-0.53 -85.19999999999999-1.15L-85.19999999999999-1.15L-85.19999999999999-24.82Q-85.19999999999999-25.73 -82.53999999999999-26.78Q-79.86999999999999-27.84 -76.72999999999999-27.84Q-73.58-27.84 -73.19999999999999-26.11L-73.19999999999999-26.11L-72.72-23.9L-72.38-23.9Q-71.71-25.73 -69.16999999999999-27Q-66.61999999999999-28.27 -64.08-28.27Q-61.53999999999999-28.27 -60.5-27.46Q-59.47-26.64 -59.47-25.37Q-59.47-24.1 -59.66-22.13Q-59.86-20.16 -60.599999999999994-17.86Q-61.339999999999996-15.55 -62.53999999999999-15.55L-62.53999999999999-15.55Q-63.019999999999996-15.55 -65.57-16.27Q-68.11-16.99 -69.77-16.99Q-71.41999999999999-16.99 -71.83-16.51Q-72.24-16.03 -72.24-15.17ZM-42.86200000000001-10.85L-44.45200000000001-10.85Q-44.45200000000001-7.73 -41.47200000000001-7.73L-41.47200000000001-7.73Q-39.742000000000004-7.73 -36.96200000000001-8.9Q-34.17200000000001-10.08 -34.03200000000001-10.08L-34.03200000000001-10.08Q-33.122000000000014-10.08 -31.63200000000001-7.34Q-30.14200000000001-4.61 -30.14200000000001-3.31L-30.14200000000001-3.31Q-30.14200000000001-1.44 -33.98200000000001-0.48Q-37.82200000000001 0.48 -41.492000000000004 0.48Q-45.17200000000001 0.48 -47.64200000000001-0.1Q-50.11200000000001-0.67 -51.67200000000001-1.56Q-53.23200000000001-2.45 -54.412000000000006-3.74Q-55.58200000000001-5.04 -56.162000000000006-6.22Q-56.732000000000006-7.39 -57.07200000000001-8.83L-57.07200000000001-8.83Q-57.55200000000001-10.94 -57.55200000000001-13.2L-57.55200000000001-13.2Q-57.55200000000001-21.94 -52.99200000000001-25.25L-52.99200000000001-25.25Q-50.73200000000001-26.93 -47.95200000000001-27.6Q-45.17200000000001-28.27 -41.372000000000014-28.27L-41.372000000000014-28.27Q-29.23200000000001-28.27 -29.23200000000001-19.82L-29.23200000000001-19.82Q-29.23200000000001-10.85 -42.86200000000001-10.85L-42.86200000000001-10.85ZM-44.54200000000001-17.86L-44.54200000000001-17.86L-44.54200000000001-14.69Q-43.15200000000001-14.69 -42.262000000000015-15.79Q-41.372000000000014-16.9 -41.372000000000014-18.48L-41.372000000000014-18.48Q-41.372000000000014-21.36 -42.86200000000001-21.36L-42.86200000000001-21.36Q-44.54200000000001-21.36 -44.54200000000001-17.86ZM-17.23200000000001 0.43L-17.23200000000001 0.43Q-21.60200000000001 0.43 -24.09200000000001-1.63L-24.09200000000001-1.63Q-25.10200000000001-2.5 -25.85200000000001-4.18Q-26.59200000000001-5.86 -26.59200000000001-8.11Q-26.59200000000001-10.37 -25.51200000000001-12.05Q-24.43200000000001-13.73 -22.89200000000001-14.64Q-21.36200000000001-15.55 -19.29200000000001-16.13L-19.29200000000001-16.13Q-16.17200000000001-16.94 -12.432000000000011-16.94L-12.432000000000011-16.94L-10.852000000000011-16.94Q-10.852000000000011-18.91 -12.19200000000001-19.73L-12.19200000000001-19.73Q-12.772000000000011-20.06 -13.94200000000001-20.06Q-15.12200000000001-20.06 -16.772000000000013-19.44Q-18.43200000000001-18.82 -19.53200000000001-18.17Q-20.64200000000001-17.52 -21.022000000000013-17.52L-21.022000000000013-17.52Q-21.89200000000001-17.52 -23.37200000000001-19.8Q-24.86200000000001-22.08 -24.86200000000001-23.95L-24.86200000000001-23.95Q-24.86200000000001-24.58 -23.09200000000001-25.58Q-21.312000000000012-26.59 -18.07200000000001-27.43Q-14.832000000000011-28.27 -11.762000000000011-28.27Q-8.69200000000001-28.27 -6.452000000000012-27.77Q-4.222000000000012-27.26 -2.812000000000012-26.54Q-1.3920000000000101-25.82 -0.4120000000000097-24.62Q 0.5779999999999887-23.42  1.0779999999999887-22.46Q 1.5879999999999903-21.5  1.8279999999999887-19.97L 1.8279999999999887-19.97Q 2.1579999999999906-18.19  2.1579999999999906-15.6L 2.1579999999999906-15.6L 2.1579999999999906-1.15Q 2.1579999999999906-0.62 -0.4120000000000097-0.31Q-2.972000000000012 0 -5.4920000000000115 0Q-8.012000000000011 0 -8.762000000000011-0.14Q-9.50200000000001-0.29 -9.652000000000012-0.48Q-9.792000000000012-0.67 -9.89200000000001-1.15L-9.89200000000001-1.15L-10.27200000000001-3.89L-10.652000000000012-3.89Q-11.852000000000011 0.43 -17.23200000000001 0.43ZM-10.80200000000001-7.54L-10.80200000000001-7.54L-10.80200000000001-13.15Q-12.05200000000001-13.15 -12.81200000000001-12.1Q-13.582000000000011-11.04 -13.582000000000011-9.7L-13.582000000000011-9.7Q-13.582000000000011-6.53 -12.14200000000001-6.53L-12.14200000000001-6.53Q-11.52200000000001-6.53 -11.16200000000001-6.84Q-10.80200000000001-7.15 -10.80200000000001-7.54ZM 24.37999999999999-0.43Q 23.51999999999999 0.38  20.44999999999999 0.38Q 17.37999999999999 0.38  15.359999999999989-0.02Q 13.33999999999999-0.43  11.519999999999989-1.63L 11.519999999999989-1.63Q 8.019999999999989-3.98  8.019999999999989-11.42L 8.019999999999989-11.42L 8.019999999999989-18.91L 5.6199999999999894-18.91Q 5.089999999999989-18.91  4.6999999999999895-20.02Q 4.31999999999999-21.12  4.31999999999999-23.04Q 4.31999999999999-24.96  4.919999999999989-26.42Q 5.519999999999989-27.89  6.47999999999999-27.89L 6.47999999999999-27.89L 8.019999999999989-27.89L 8.019999999999989-33.7Q 8.019999999999989-35.18  10.91999999999999-36.1Q 13.81999999999999-37.01  16.60999999999999-37.01L 16.60999999999999-37.01Q 20.97999999999999-37.01  20.97999999999999-34.85L 20.97999999999999-34.85L 20.97999999999999-27.89L 24.52999999999999-27.89Q 25.77999999999999-27.89  25.77999999999999-24.29L 25.77999999999999-24.29Q 25.77999999999999-21.94  25.219999999999988-20.42Q 24.669999999999987-18.91  23.809999999999988-18.91L 23.809999999999988-18.91L 20.97999999999999-18.91L 20.97999999999999-10.13Q 20.97999999999999-8.83  22.079999999999988-8.28Q 23.17999999999999-7.73  24.01999999999999-7.73Q 24.85999999999999-7.73  25.059999999999988-6.91Q 25.24999999999999-6.1  25.24999999999999-4.46L 25.24999999999999-4.46Q 25.24999999999999-1.25  24.37999999999999-0.43ZM 38.30599999999999 0.43L 38.30599999999999 0.43Q 32.92599999999999 0.43  30.79599999999999-2.35Q 28.655999999999988-5.14  28.655999999999988-12.05L 28.655999999999988-12.05L 28.655999999999988-25.1Q 28.655999999999988-26.06  31.48599999999999-26.95Q 34.31599999999999-27.84  37.43599999999999-27.84L 37.43599999999999-27.84Q 41.615999999999985-27.84  41.615999999999985-25.68L 41.615999999999985-25.68L 41.615999999999985-13.49Q 41.615999999999985-9.84  41.90599999999999-8.18Q 42.19599999999999-6.53  43.34599999999999-6.53L 43.34599999999999-6.53Q 44.87599999999999-6.53  44.87599999999999-7.82L 44.87599999999999-7.82L 44.87599999999999-25.1Q 44.87599999999999-26.11  47.85599999999999-26.98Q 50.835999999999984-27.84  54.335999999999984-27.84Q 57.835999999999984-27.84  57.835999999999984-25.97L 57.835999999999984-25.97L 57.835999999999984-1.25Q 57.835999999999984-0.58  54.81599999999999-0.29Q 51.79599999999999 0  48.865999999999985 0Q 45.93599999999999 0  45.88599999999999-0.77L 45.88599999999999-0.77L 45.40599999999999-3.89L 45.02599999999999-3.89Q 44.59599999999999-2.16  43.29599999999999-1.06L 43.29599999999999-1.06Q 42.62599999999999-0.48  41.30599999999999-0.02Q 39.98599999999999 0.43  38.30599999999999 0.43ZM 74.16-15.17L 74.16-15.17L 74.16-1.15Q 74.16-0.62  71.45-0.31Q 68.74000000000001 0  65.83 0Q 62.93000000000001 0  62.06-0.26Q 61.2-0.53  61.2-1.15L 61.2-1.15L 61.2-24.82Q 61.2-25.73  63.86-26.78Q 66.53-27.84  69.67-27.84Q 72.82000000000001-27.84  73.2-26.11L 73.2-26.11L 73.68-23.9L 74.02000000000001-23.9Q 74.69-25.73  77.23-27Q 79.78-28.27  82.32000000000001-28.27Q 84.86-28.27  85.9-27.46Q 86.93-26.64  86.93-25.37Q 86.93-24.1  86.74000000000001-22.13Q 86.54-20.16  85.80000000000001-17.86Q 85.06-15.55  83.86-15.55L 83.86-15.55Q 83.38-15.55  80.83-16.27Q 78.29-16.99  76.63-16.99Q 74.98-16.99  74.57000000000001-16.51Q 74.16-16.03  74.16-15.17ZM 103.538-10.85L 101.948-10.85Q 101.948-7.73  104.928-7.73L 104.928-7.73Q 106.658-7.73  109.43799999999999-8.9Q 112.228-10.08  112.368-10.08L 112.368-10.08Q 113.27799999999999-10.08  114.768-7.34Q 116.258-4.61  116.258-3.31L 116.258-3.31Q 116.258-1.44  112.41799999999999-0.48Q 108.578 0.48  104.908 0.48Q 101.228 0.48  98.758-0.1Q 96.288-0.67  94.728-1.56Q 93.16799999999999-2.45  91.988-3.74Q 90.818-5.04  90.238-6.22Q 89.66799999999999-7.39  89.328-8.83L 89.328-8.83Q 88.848-10.94  88.848-13.2L 88.848-13.2Q 88.848-21.94  93.408-25.25L 93.408-25.25Q 95.66799999999999-26.93  98.448-27.6Q 101.228-28.27  105.02799999999999-28.27L 105.02799999999999-28.27Q 117.16799999999999-28.27  117.16799999999999-19.82L 117.16799999999999-19.82Q 117.16799999999999-10.85  103.538-10.85L 103.538-10.85ZM 101.858-17.86L 101.858-17.86L 101.858-14.69Q 103.24799999999999-14.69  104.13799999999999-15.79Q 105.02799999999999-16.9  105.02799999999999-18.48L 105.02799999999999-18.48Q 105.02799999999999-21.36  103.538-21.36L 103.538-21.36Q 101.858-21.36  101.858-17.86Z" />
    <path text="Builder" fill="#FFFFFF" space="preserve" text-anchor="middle" offset="0.5" font-scale="contain" font-size="48" font-family="Titan One" transform="matrix(1.1542341702538077, 0, 0, 1.1542341702538077, 320.885133095266, 141.18677094839603)" data-fl-textpath="" font-weight="400" font-style="normal" data-uid="o_f0algm45i_92" d="M-78.65200000000002 0L-78.65200000000002 0L-89.16200000000002 0Q-91.56200000000003 0 -92.37200000000003-0.34Q-93.19200000000002-0.67 -93.19200000000002-1.39L-93.19200000000002-1.39L-93.19200000000002-32.26Q-93.19200000000002-34.56 -79.32200000000003-34.56L-79.32200000000003-34.56Q-71.35200000000002-34.56 -68.33200000000002-33.02L-68.33200000000002-33.02Q-65.25200000000002-31.44 -64.39200000000002-28.99L-64.39200000000002-28.99Q-63.91200000000002-27.55 -63.91200000000002-25.63L-63.91200000000002-25.63Q-63.91200000000002-21.89 -65.18200000000002-20.02Q-66.45200000000003-18.14 -67.94200000000002-17.9L-67.94200000000002-17.9Q-65.69200000000002-17.42 -64.20200000000003-15.7Q-62.712000000000025-13.97 -62.712000000000025-9.84L-62.712000000000025-9.84Q-62.712000000000025-5.04 -65.64200000000002-2.74L-65.64200000000002-2.74Q-68.18200000000002-0.72 -73.41200000000002-0.19L-73.41200000000002-0.19Q-75.62200000000003 0 -78.65200000000002 0ZM-79.80200000000002-20.93L-78.60200000000002-20.93Q-76.15200000000002-20.93 -76.15200000000002-24.19L-76.15200000000002-24.19Q-76.15200000000002-25.82 -76.80200000000002-26.62Q-77.45200000000003-27.41 -78.26200000000003-27.41L-78.26200000000003-27.41L-79.80200000000002-27.41L-79.80200000000002-20.93ZM-79.80200000000002-13.63L-79.80200000000002-7.15L-78.60200000000002-7.15Q-76.15200000000002-7.15 -76.15200000000002-10.42L-76.15200000000002-10.42Q-76.15200000000002-12.05 -76.80200000000002-12.84Q-77.45200000000003-13.63 -78.26200000000003-13.63L-78.26200000000003-13.63L-79.80200000000002-13.63ZM-49.94200000000002 0.43L-49.94200000000002 0.43Q-55.32200000000002 0.43 -57.45200000000002-2.35Q-59.59200000000002-5.14 -59.59200000000002-12.05L-59.59200000000002-12.05L-59.59200000000002-25.1Q-59.59200000000002-26.06 -56.76200000000002-26.95Q-53.932000000000016-27.84 -50.81200000000002-27.84L-50.81200000000002-27.84Q-46.63200000000002-27.84 -46.63200000000002-25.68L-46.63200000000002-25.68L-46.63200000000002-13.49Q-46.63200000000002-9.84 -46.34200000000002-8.18Q-46.05200000000002-6.53 -44.902000000000015-6.53L-44.902000000000015-6.53Q-43.37200000000002-6.53 -43.37200000000002-7.82L-43.37200000000002-7.82L-43.37200000000002-25.1Q-43.37200000000002-26.11 -40.392000000000024-26.98Q-37.41200000000002-27.84 -33.91200000000002-27.84Q-30.41200000000002-27.84 -30.41200000000002-25.97L-30.41200000000002-25.97L-30.41200000000002-1.25Q-30.41200000000002-0.58 -33.432000000000016-0.29Q-36.45200000000002 0 -39.38200000000002 0Q-42.31200000000002 0 -42.36200000000002-0.77L-42.36200000000002-0.77L-42.84200000000002-3.89L-43.22200000000002-3.89Q-43.652000000000015-2.16 -44.95200000000002-1.06L-44.95200000000002-1.06Q-45.62200000000002-0.48 -46.94200000000002-0.02Q-48.26200000000002 0.43 -49.94200000000002 0.43ZM-13.848000000000015-24.82L-13.848000000000015-24.82L-13.848000000000015-1.15Q-13.848000000000015-0.62 -16.60800000000002-0.31Q-19.368000000000016 0 -22.268000000000015 0Q-25.178000000000015 0 -26.018000000000015-0.26Q-26.858000000000015-0.53 -26.858000000000015-1.15L-26.858000000000015-1.15L-26.858000000000015-23.95Q-26.858000000000015-25.01 -24.148000000000017-26.04Q-21.428000000000015-27.07 -18.218000000000018-27.07L-18.218000000000018-27.07Q-13.848000000000015-27.07 -13.848000000000015-24.82ZM-20.378000000000014-37.44L-20.378000000000014-37.44Q-17.208000000000016-37.44 -15.408000000000015-36.5Q-13.608000000000017-35.57 -13.608000000000017-33.12L-13.608000000000017-33.12Q-13.608000000000017-28.8 -20.328000000000017-28.8Q-27.048000000000016-28.8 -27.048000000000016-33.12Q-27.048000000000016-37.44 -20.378000000000014-37.44ZM 2.7119999999999855-35.23L 2.7119999999999855-35.23L 2.7119999999999855-1.15Q 2.7119999999999855-0.62 -0.02800000000001468-0.31Q-2.758000000000015 0 -5.668000000000015 0Q-8.568000000000016 0 -9.408000000000015-0.26Q-10.248000000000015-0.53 -10.248000000000015-1.15L-10.248000000000015-1.15L-10.248000000000015-34.37Q-10.248000000000015-35.42 -7.538000000000015-36.43Q-4.828000000000015-37.44 -1.7080000000000144-37.44L-1.7080000000000144-37.44Q 2.7119999999999855-37.44  2.7119999999999855-35.23ZM 15.091999999999985 0.43L 15.091999999999985 0.43Q 13.321999999999985 0.43  11.781999999999986-0.1Q 10.251999999999985-0.62  9.261999999999986-1.39Q 8.281999999999986-2.16  7.561999999999985-3.46Q 6.841999999999985-4.75  6.451999999999986-5.93Q 6.071999999999985-7.1  5.8819999999999855-8.83L 5.8819999999999855-8.83Q 5.591999999999985-11.38  5.591999999999985-14.64L 5.591999999999985-14.64Q 5.591999999999985-21.31  8.041999999999986-24.79Q 10.491999999999985-28.27  14.761999999999984-28.27L 14.761999999999984-28.27Q 19.131999999999984-28.27  21.091999999999985-26.21L 21.091999999999985-26.21Q 21.531999999999986-25.73  21.771999999999984-25.06L 21.771999999999984-25.06L 22.151999999999987-25.06L 21.571999999999985-28.37L 21.571999999999985-34.37Q 21.571999999999985-35.42  24.261999999999986-36.43Q 26.951999999999984-37.44  30.071999999999985-37.44L 30.071999999999985-37.44Q 33.33199999999999-37.44  34.25199999999998-36.19L 34.25199999999998-36.19Q 34.58199999999999-35.71  34.58199999999999-35.23L 34.58199999999999-35.23L 34.58199999999999-1.15Q 34.58199999999999-0.62  31.921999999999986-0.31Q 29.251999999999985 0  26.781999999999986 0Q 24.311999999999987 0  23.611999999999984-0.17Q 22.921999999999986-0.34  22.751999999999985-0.53Q 22.581999999999987-0.72  22.531999999999986-1.15L 22.531999999999986-1.15L 22.151999999999987-3.89L 21.771999999999984-3.89Q 21.331999999999987-2.21  20.041999999999987-1.06L 20.041999999999987-1.06Q 18.411999999999985 0.43  15.091999999999985 0.43ZM 20.471999999999984-6.58L 20.471999999999984-6.58Q 21.241999999999987-6.58  21.621999999999986-7.54L 21.621999999999986-7.54L 21.621999999999986-20.35Q 21.621999999999986-20.83  21.121999999999986-21.1Q 20.611999999999984-21.36  20.231999999999985-21.36L 20.231999999999985-21.36Q 18.601999999999986-21.36  18.601999999999986-13.87L 18.601999999999986-13.87Q 18.601999999999986-9.89  19.051999999999985-8.23Q 19.511999999999986-6.58  20.471999999999984-6.58ZM 52.15399999999998-10.85L 50.56399999999998-10.85Q 50.56399999999998-7.73  53.54399999999998-7.73L 53.54399999999998-7.73Q 55.27399999999999-7.73  58.05399999999998-8.9Q 60.84399999999998-10.08  60.98399999999998-10.08L 60.98399999999998-10.08Q 61.89399999999998-10.08  63.383999999999986-7.34Q 64.87399999999998-4.61  64.87399999999998-3.31L 64.87399999999998-3.31Q 64.87399999999998-1.44  61.03399999999998-0.48Q 57.19399999999998 0.48  53.52399999999999 0.48Q 49.84399999999998 0.48  47.37399999999998-0.1Q 44.90399999999998-0.67  43.34399999999998-1.56Q 41.78399999999998-2.45  40.603999999999985-3.74Q 39.43399999999998-5.04  38.853999999999985-6.22Q 38.283999999999985-7.39  37.94399999999998-8.83L 37.94399999999998-8.83Q 37.463999999999984-10.94  37.463999999999984-13.2L 37.463999999999984-13.2Q 37.463999999999984-21.94  42.02399999999998-25.25L 42.02399999999998-25.25Q 44.28399999999998-26.93  47.06399999999998-27.6Q 49.84399999999998-28.27  53.64399999999998-28.27L 53.64399999999998-28.27Q 65.78399999999998-28.27  65.78399999999998-19.82L 65.78399999999998-19.82Q 65.78399999999998-10.85  52.15399999999998-10.85L 52.15399999999998-10.85ZM 50.47399999999998-17.86L 50.47399999999998-17.86L 50.47399999999998-14.69Q 51.86399999999998-14.69  52.75399999999998-15.79Q 53.64399999999998-16.9  53.64399999999998-18.48L 53.64399999999998-18.48Q 53.64399999999998-21.36  52.15399999999998-21.36L 52.15399999999998-21.36Q 50.47399999999998-21.36  50.47399999999998-17.86ZM 81.62399999999998-15.17L 81.62399999999998-15.17L 81.62399999999998-1.15Q 81.62399999999998-0.62  78.91399999999999-0.31Q 76.20399999999998 0  73.29399999999998 0Q 70.39399999999998 0  69.52399999999999-0.26Q 68.66399999999999-0.53  68.66399999999999-1.15L 68.66399999999999-1.15L 68.66399999999999-24.82Q 68.66399999999999-25.73  71.32399999999998-26.78Q 73.99399999999999-27.84  77.13399999999999-27.84Q 80.28399999999998-27.84  80.66399999999999-26.11L 80.66399999999999-26.11L 81.14399999999998-23.9L 81.48399999999998-23.9Q 82.15399999999998-25.73  84.69399999999999-27Q 87.24399999999999-28.27  89.78399999999998-28.27Q 92.32399999999998-28.27  93.36399999999998-27.46Q 94.39399999999998-26.64  94.39399999999998-25.37Q 94.39399999999998-24.1  94.20399999999998-22.13Q 94.00399999999998-20.16  93.26399999999998-17.86Q 92.52399999999997-15.55  91.32399999999998-15.55L 91.32399999999998-15.55Q 90.84399999999998-15.55  88.29399999999998-16.27Q 85.75399999999998-16.99  84.09399999999998-16.99Q 82.44399999999999-16.99  82.03399999999998-16.51Q 81.62399999999998-16.03  81.62399999999998-15.17Z" />
</svg>